<?xml version="1.0" encoding="UTF-8" standalone="no"?>
<svg
   width="48"
   height="53"
   viewBox="0 0 48 53"
   fill="none"
   version="1.1"
   id="svg936"
   sodipodi:docname="logo.svg"
   inkscape:version="1.1.1 (c3084ef, 2021-09-22)"
   xmlns:inkscape="http://www.inkscape.org/namespaces/inkscape"
   xmlns:sodipodi="http://sodipodi.sourceforge.net/DTD/sodipodi-0.dtd"
   xmlns="http://www.w3.org/2000/svg"
   xmlns:svg="http://www.w3.org/2000/svg">
  <sodipodi:namedview
     id="namedview938"
     pagecolor="#ffffff"
     bordercolor="#666666"
     borderopacity="1.0"
     inkscape:pageshadow="2"
     inkscape:pageopacity="0.0"
     inkscape:pagecheckerboard="0"
     showgrid="false"
     inkscape:lockguides="true"
     inkscape:zoom="4.7302149"
     inkscape:cx="3.2768067"
     inkscape:cy="12.790117"
     inkscape:window-width="1312"
     inkscape:window-height="969"
     inkscape:window-x="97"
     inkscape:window-y="25"
     inkscape:window-maximized="0"
     inkscape:current-layer="svg936" />
  <defs
     id="defs934">
    <inkscape:perspective
       sodipodi:type="inkscape:persp3d"
       inkscape:vp_x="0 : 26.5 : 1"
       inkscape:vp_y="0 : 1000 : 0"
       inkscape:vp_z="48 : 26.5 : 1"
       inkscape:persp3d-origin="24 : 17.666667 : 1"
       id="perspective1072" />
    <filter
       id="filter0_d"
       x="12"
       y="14"
       width="23.9998"
       height="23.0435"
       filterUnits="userSpaceOnUse"
       color-interpolation-filters="sRGB">
      <feFlood
         flood-opacity="0"
         result="BackgroundImageFix"
         id="feFlood914" />
      <feColorMatrix
         in="SourceAlpha"
         type="matrix"
         values="0 0 0 0 0 0 0 0 0 0 0 0 0 0 0 0 0 0 127 0"
         result="hardAlpha"
         id="feColorMatrix916" />
      <feOffset
         dy="1"
         id="feOffset918" />
      <feGaussianBlur
         stdDeviation="0.5"
         id="feGaussianBlur920" />
      <feComposite
         in2="hardAlpha"
         operator="out"
         id="feComposite922" />
      <feColorMatrix
         type="matrix"
         values="0 0 0 0 0 0 0 0 0 0 0 0 0 0 0 0 0 0 0.25 0"
         id="feColorMatrix924" />
      <feBlend
         mode="normal"
         in2="BackgroundImageFix"
         result="effect1_dropShadow"
         id="feBlend926" />
      <feBlend
         mode="normal"
         in="SourceGraphic"
         in2="effect1_dropShadow"
         result="shape"
         id="feBlend928" />
    </filter>
    <clipPath
       id="clip0">
      <rect
         width="48"
         height="53"
         fill="white"
         id="rect931" />
    </clipPath>
  </defs>
  <g
     id="g1702"
     transform="translate(0.42281376,0.63422065)">
    <path
       style="fill:#dfd05f;stroke-width:0.0104191"
       d="m 19.571776,42.761825 c -0.018,-0.0137 -0.01891,-0.03122 -0.0148,-0.28636 0.0041,-0.256843 0.0058,-0.276182 0.03075,-0.352095 0.07562,-0.23025 0.242236,-0.40459 0.463088,-0.48454 l 0.08929,-0.03233 0.326385,-0.002 c 0.179512,-0.0011 0.339323,-0.0023 0.355137,-0.0026 0.02012,-4.3e-4 0.03146,-0.0078 0.03779,-0.02466 0.007,-0.01872 0.03049,-0.03121 0.105948,-0.05643 0.295789,-0.09888 0.610492,-0.273237 0.868837,-0.481375 0.113069,-0.0911 0.338418,-0.31893 0.428734,-0.433465 0.20989,-0.266169 0.370317,-0.564755 0.482456,-0.897941 l 0.04206,-0.124973 v -8.960369 c 0,-6.337615 -0.0032,-8.958349 -0.01104,-8.95347 -0.0061,0.0038 -0.571319,0.611083 -1.256106,1.349531 -2.160981,2.330323 -2.290046,2.468912 -2.299248,2.468912 -0.005,0 -0.04745,-0.03654 -0.09444,-0.0812 -0.08037,-0.07638 -0.83966,-0.797037 -1.315248,-1.248325 -0.11825,-0.112208 -0.215,-0.208114 -0.215,-0.213125 0,-0.005 0.06437,-0.07839 0.143034,-0.163065 0.07867,-0.08468 0.482949,-0.521698 0.898404,-0.971162 0.884809,-0.957239 1.683104,-1.819808 3.107666,-3.357878 0.5684,-0.61369 1.037347,-1.125765 1.042104,-1.137945 0.0048,-0.01218 0.01483,-0.02397 0.02239,-0.02619 0.0076,-0.0022 0.510318,-0.0017 1.117239,0.0012 l 1.103494,0.0052 0.0026,4.593652 c 0.0014,2.526509 0.0061,4.596977 0.01036,4.60104 0.0093,0.0089 0.2141,-0.0038 0.531012,-0.03277 1.433408,-0.131251 2.786135,-0.502753 3.849276,-1.057132 1.598813,-0.83371 2.593659,-2.037386 2.973357,-3.597502 0.126551,-0.519977 0.16676,-0.904735 0.15809,-1.512748 -0.0065,-0.4554 -0.03344,-0.729173 -0.11273,-1.145351 -0.260453,-1.367055 -0.919739,-2.68997 -1.87967,-3.77172 -0.149843,-0.168858 -0.524956,-0.54208 -0.677963,-0.674545 -0.534663,-0.462881 -1.051376,-0.807283 -1.683734,-1.122247 -1.223068,-0.609186 -2.640948,-0.944429 -4.318978,-1.021178 -0.301662,-0.0138 -1.046832,-0.0139 -1.369454,-1.78e-4 -1.428973,0.06075 -2.916452,0.277366 -4.610841,0.671471 -0.353872,0.08231 -1.646904,0.412323 -2.51265,0.641292 -1.036203,0.27405 -1.168482,0.307173 -1.179277,0.295295 -0.01604,-0.01765 -0.851566,-2.057912 -0.851566,-2.07943 0,-0.02474 0.05016,-0.0646 0.119168,-0.09469 0.283426,-0.123601 1.251952,-0.390982 2.409024,-0.665059 0.185211,-0.04387 0.474295,-0.112773 0.64241,-0.153117 1.150612,-0.276123 1.720265,-0.398254 2.481565,-0.532036 2.033004,-0.357259 3.850179,-0.472817 5.53301,-0.351859 1.964219,0.141185 3.72926,0.631902 5.204416,1.446937 1.128264,0.623373 2.187341,1.492955 3.028807,2.486877 1.527022,1.803687 2.319478,3.94662 2.246603,6.075189 -0.0276,0.806175 -0.162181,1.556148 -0.41858,2.332603 -0.364499,1.103818 -0.875744,2.009992 -1.589846,2.817976 -1.676442,1.89684 -4.468971,3.098003 -7.704654,3.314036 l -0.269397,0.01799 v 4.767035 4.767035 l 0.02953,0.125724 c 0.0714,0.303971 0.19845,0.615784 0.355735,0.873081 0.346247,0.566409 0.887778,1.00223 1.500665,1.207726 0.0687,0.02304 0.102667,0.03975 0.105862,0.05211 0.0043,0.01667 0.03288,0.01859 0.343081,0.02296 0.35536,0.005 0.384504,0.0084 0.509131,0.05935 0.200741,0.08205 0.367497,0.277716 0.426596,0.500553 0.01813,0.06837 0.02248,0.122414 0.02682,0.333647 0.0048,0.235439 0.0039,0.253346 -0.01403,0.271486 -0.01862,0.01883 -0.08438,0.0192 -2.16419,0.01231 -2.664945,-0.0088 -6.439623,-0.0093 -6.513855,-8.9e-4 -0.03947,0.0045 -0.061,0.0021 -0.07464,-0.0083 z"
       id="path1716" />
    <path
       style="fill:#c8b551;stroke-width:0.0104191"
       d="m 19.57282,42.758615 c -0.0043,-0.0046 -0.0078,-0.124697 -0.0078,-0.266873 0,-0.222985 0.0028,-0.269603 0.02043,-0.339285 0.06625,-0.261943 0.284214,-0.473052 0.544266,-0.527158 0.07516,-0.01564 0.111388,-0.01596 0.388554,-0.0034 0.209189,0.0095 0.354716,0.01087 0.461084,0.0045 l 0.155421,-0.0094 -0.123691,-0.003 c -0.06803,-0.0016 -0.129534,-0.0079 -0.136674,-0.01386 -0.02371,-0.0199 -0.0028,-0.03944 0.06699,-0.06263 0.216934,-0.07208 0.486584,-0.203401 0.673418,-0.327967 0.547992,-0.365358 0.956705,-0.912639 1.150741,-1.540879 l 0.03223,-0.104355 v -8.949774 c 0,-5.228384 -0.0038,-8.952175 -0.0092,-8.955548 -0.0089,-0.0056 -0.09044,0.08048 -0.778687,0.821742 -2.339429,2.51964 -2.767131,2.97908 -2.781663,2.988076 -0.0071,0.0044 -0.06618,-0.04435 -0.146083,-0.120486 -0.0738,-0.07032 -0.422458,-0.403662 -0.774801,-0.740759 -0.352342,-0.337098 -0.649457,-0.619373 -0.660256,-0.627279 -0.0108,-0.0079 -0.01963,-0.02278 -0.01963,-0.03304 0,-0.02438 1.00455,-1.11811 4.299258,-4.68091 0.470558,-0.508847 0.861537,-0.936702 0.868842,-0.950788 l 0.01328,-0.02561 h 1.10109 c 0.842588,0 1.10401,0.003 1.113525,0.01257 0.0096,0.0097 0.01243,1.047002 0.01243,4.604642 v 4.592069 h 0.04404 c 0.02422,-6e-6 0.13729,-0.007 0.251265,-0.01565 1.643491,-0.124025 3.128877,-0.535229 4.303692,-1.191404 0.300993,-0.168115 0.632229,-0.38827 0.891528,-0.592552 0.359879,-0.28352 0.752132,-0.6861 1.018085,-1.044889 0.974565,-1.314748 1.269448,-3.101119 0.8123,-4.920838 -0.14393,-0.572926 -0.336804,-1.085715 -0.616009,-1.637764 -0.383634,-0.758525 -0.856932,-1.415809 -1.456474,-2.022651 -0.62895,-0.636607 -1.320329,-1.132429 -2.130883,-1.528161 -2.157241,-1.053216 -4.966201,-1.282445 -8.469224,-0.691144 -0.887634,0.149831 -1.604959,0.304121 -2.745783,0.590594 -0.605568,0.152064 -0.743285,0.188449 -1.486866,0.392826 -0.604618,0.166182 -1.188315,0.319738 -1.215391,0.319738 -0.01417,0 -0.02816,-0.0059 -0.03108,-0.0131 -0.0029,-0.0072 -0.194841,-0.472698 -0.426488,-1.034434 -0.352979,-0.855962 -0.41949,-1.025078 -0.410767,-1.044438 0.04595,-0.101965 0.944111,-0.360335 2.50336,-0.720128 0.262144,-0.06049 0.644482,-0.150565 0.849638,-0.20017 1.157486,-0.279862 1.703537,-0.39543 2.548915,-0.539459 1.13122,-0.19273 2.181375,-0.305152 3.227589,-0.345523 0.353918,-0.01366 1.177898,-0.01363 1.497228,0 2.600132,0.111372 4.761163,0.758942 6.540968,1.960053 0.58853,0.397172 1.095049,0.814908 1.612027,1.329469 0.821143,0.817305 1.457369,1.686662 1.943706,2.655933 1.245418,2.48212 1.242403,5.199889 -0.0085,7.669164 -0.982736,1.939906 -2.826443,3.404299 -5.32193,4.227025 -1.044195,0.344255 -2.230728,0.571905 -3.362288,0.645094 -0.139621,0.009 -0.278365,0.01889 -0.308319,0.02191 l -0.05447,0.0055 0.0029,4.789847 0.0029,4.789845 0.0326,0.125724 c 0.08765,0.338056 0.219082,0.639076 0.396771,0.908698 0.122636,0.186087 0.208329,0.2924 0.357359,0.44335 0.307585,0.311551 0.66822,0.541408 1.067524,0.680405 0.07026,0.02446 0.121924,0.04893 0.134699,0.0638 l 0.02072,0.02412 0.347108,0.0033 0.347108,0.0033 0.08705,0.03061 c 0.181744,0.06391 0.336112,0.201677 0.419684,0.374543 0.06926,0.143267 0.07992,0.213836 0.0764,0.506121 l -0.0029,0.240971 -2.543734,0.003 c -2.252675,0.0027 -3.448099,-0.0038 -4.797347,-0.02604 -0.19596,-0.0032 -0.392634,-6.49e-4 -0.492169,0.0065 -0.210404,0.01501 -0.909258,0.02734 -0.919578,0.01622 z m 5.279155,-0.05384 0.132108,-0.0066 v -0.159181 -0.15918 l -0.126928,-0.0069 c -0.06981,-0.0038 -0.423389,-0.01 -0.785732,-0.01375 -0.544319,-0.0057 -0.667208,-0.0043 -0.707168,0.0076 l -0.04836,0.01444 v 0.160107 0.160106 l 0.05958,0.0013 c 0.03277,7.02e-4 0.124856,0.005 0.204639,0.0095 0.155714,0.0088 1.053783,0.0036 1.271867,-0.0073 z M 20.906966,42.33277 c -0.092,-0.0055 -0.182812,-0.0054 -0.222771,1.99e-4 -0.05307,0.0075 -0.01992,0.0095 0.155311,0.0093 l 0.222771,-1.99e-4 z m 4.033081,-0.0361 0.04404,-0.0061 v -0.132481 c 0,-0.110322 -0.0032,-0.137739 -0.01913,-0.163913 -0.0206,-0.03391 -0.104842,-0.130516 -0.225089,-0.258139 l -0.07541,-0.08003 -0.192426,-0.0077 c -0.298492,-0.01191 -1.743919,-0.0017 -1.757892,0.01247 -0.0085,0.0085 0.0075,0.03217 0.05984,0.0887 0.03925,0.04238 0.143438,0.154864 0.231537,0.249975 0.0881,0.09511 0.181161,0.198132 0.206806,0.228939 0.02564,0.03081 0.06061,0.06277 0.07771,0.07104 0.02649,0.01281 0.147517,0.01416 0.818554,0.0092 0.433108,-0.0032 0.807285,-0.0086 0.831505,-0.01195 z m 1.856181,-0.71256 0.107688,-0.006 -0.11805,-0.04959 c -0.815406,-0.342533 -1.42231,-0.990447 -1.688352,-1.802442 -0.02741,-0.08365 -0.06298,-0.208668 -0.07904,-0.277816 l -0.02921,-0.125724 v -4.798466 -4.798466 l 0.08807,-0.0074 c 0.04844,-0.0041 0.183657,-0.01252 0.300482,-0.01877 0.561378,-0.03006 1.220733,-0.11493 1.751084,-0.225399 0.226914,-0.04727 0.455163,-0.104953 0.468459,-0.118397 0.0097,-0.0098 0.108754,-2.198219 0.09987,-2.207202 -0.0023,-0.0024 -0.14091,0.0262 -0.307954,0.06345 -0.728249,0.162413 -1.286421,0.251576 -1.959652,0.313035 -0.318075,0.02904 -0.43062,0.0348 -0.442614,0.02268 -0.0045,-0.0045 -0.01044,-1.291212 -0.01329,-2.85934 l -0.0052,-2.851141 -0.407384,9.53372 c -0.224061,5.243546 -0.410101,9.572774 -0.413423,9.620505 -0.0033,0.04773 -0.0098,0.08545 -0.01432,0.08382 -0.0203,-0.0073 -0.272695,-0.250123 -0.789677,-0.75982 -0.306666,-0.302345 -0.558997,-0.548047 -0.560735,-0.546006 -0.0017,0.002 -0.02536,0.06029 -0.05249,0.129434 -0.126141,0.321471 -0.277943,0.569741 -0.54311,0.888251 -0.07173,0.08616 -0.134581,0.162408 -0.139659,0.16943 -0.01405,0.01943 0.086,0.137302 0.340477,0.401114 l 0.224743,0.232986 0.385139,0.003 c 0.612048,0.0048 3.679287,-0.0028 3.798127,-0.0095 z m 1.496524,-28.245859 c 0.03019,-0.706181 0.04624,-1.173287 0.04052,-1.179068 -0.01985,-0.02007 -0.277417,-0.119112 -0.541243,-0.20812 -0.698291,-0.235586 -1.505179,-0.410715 -2.336999,-0.507229 l -0.04194,-0.0049 -0.04382,1.060306 c -0.0241,0.583168 -0.0456,1.074808 -0.04778,1.092535 l -0.004,0.03223 0.157069,0.0289 c 0.933212,0.171726 1.791962,0.433871 2.607549,0.795992 0.07124,0.03163 0.136512,0.0578 0.14506,0.05816 0.01344,5.66e-4 0.0223,-0.157469 0.06554,-1.168841 z"
       id="path1714" />
    <path
       style="fill:#b5a148;stroke-width:0.0104191"
       d="m 19.57282,42.758268 c -0.0043,-0.0044 -0.0077,-0.11921 -0.0076,-0.255106 2.18e-4,-0.292868 0.0095,-0.350836 0.07893,-0.493065 0.03949,-0.08089 0.06416,-0.11516 0.133035,-0.184802 0.0701,-0.07089 0.101262,-0.09361 0.182291,-0.132927 0.05375,-0.02609 0.121048,-0.05221 0.149542,-0.05804 0.03346,-0.0069 0.25548,-0.0085 0.626867,-0.0046 0.513794,0.0054 0.890666,-9.22e-4 0.87711,-0.01463 -0.0027,-0.0027 -0.169254,-0.0081 -0.370191,-0.01198 -0.27569,-0.0053 -0.366386,-0.01025 -0.369595,-0.02002 -0.0047,-0.01441 -0.0054,-0.01411 0.168238,-0.0771 0.459104,-0.166557 0.920544,-0.500379 1.23009,-0.889888 0.196264,-0.246966 0.376825,-0.580002 0.474117,-0.874491 l 0.05192,-0.157155 1.14e-4,-8.966461 c 1.03e-4,-7.797044 -0.0018,-8.966019 -0.0148,-8.963073 -0.0082,0.0019 -0.211944,0.215547 -0.452758,0.474852 -2.184894,2.352664 -3.082845,3.316078 -3.102484,3.328662 -0.01535,0.0098 -1.581957,-1.482541 -1.587658,-1.512438 -0.0036,-0.01872 1.254244,-1.390823 3.945672,-4.304191 0.321901,-0.348447 0.720555,-0.779837 0.885897,-0.958646 0.165343,-0.178809 0.309885,-0.337721 0.321205,-0.353138 l 0.02058,-0.02803 1.093132,-0.0058 c 0.601223,-0.0032 1.098955,-0.0021 1.106072,0.0024 0.01031,0.0066 0.01347,0.942949 0.01554,4.601854 l 0.0026,4.593553 0.06217,0.0032 c 0.07441,0.0039 0.423121,-0.02206 0.689036,-0.05125 1.145493,-0.125763 2.18759,-0.390404 3.13683,-0.796596 0.223707,-0.09573 0.695487,-0.337416 0.904132,-0.463178 0.62543,-0.376981 1.127372,-0.799444 1.541719,-1.297597 0.710266,-0.853928 1.114265,-1.902248 1.194418,-3.099346 0.02371,-0.354073 0.003,-0.904633 -0.04794,-1.272956 -0.207028,-1.497705 -0.889101,-2.958958 -1.929254,-4.133176 -0.176361,-0.199092 -0.528234,-0.548147 -0.719716,-0.713952 -1.424171,-1.233196 -3.260756,-1.927441 -5.55151,-2.098519 -0.430619,-0.03216 -0.732097,-0.03999 -1.305541,-0.03393 -0.551633,0.0058 -0.677786,0.01069 -1.14494,0.04403 -1.227516,0.08762 -2.611994,0.30813 -4.079635,0.649777 -0.348032,0.08102 -1.382854,0.343489 -1.795302,0.45536 -0.18806,0.05101 -0.57506,0.156353 -0.86,0.234099 -0.797605,0.217628 -0.895399,0.24239 -0.907793,0.229858 -0.01721,-0.0174 -0.848432,-2.038255 -0.848453,-2.062737 0,-0.03204 0.02849,-0.05335 0.131477,-0.09825 0.289589,-0.12624 0.981332,-0.313409 2.267179,-0.613442 0.33053,-0.07712 0.857409,-0.201386 1.170842,-0.276139 1.022413,-0.24384 1.633433,-0.370639 2.424578,-0.503146 3.852489,-0.645247 7.069368,-0.388486 9.63096,0.768713 1.648008,0.744488 3.107269,1.924311 4.204843,3.399644 0.989969,1.330692 1.604545,2.850801 1.772892,4.385113 0.03657,0.333278 0.04654,0.526507 0.04624,0.895784 -3.73e-4,0.452477 -0.02657,0.800542 -0.09266,1.231047 -0.169876,1.106561 -0.603098,2.27539 -1.184395,3.195485 -1.325365,2.097832 -3.757165,3.547365 -6.871009,4.095629 -0.499124,0.08788 -1.191333,0.166476 -1.678553,0.190585 -0.07693,0.0038 -0.145708,0.01158 -0.152831,0.01728 -0.01033,0.0083 -0.01295,0.968577 -0.01295,4.738909 0,4.682678 1.97e-4,4.729597 0.02069,4.836471 0.0859,0.448159 0.274023,0.863754 0.55987,1.236844 0.102302,0.133527 0.371784,0.399747 0.512577,0.506375 0.258232,0.195569 0.540835,0.345503 0.836206,0.443646 0.04539,0.01508 0.07157,0.02981 0.07555,0.0425 0.0057,0.01829 0.02632,0.01965 0.35536,0.02341 0.346003,0.004 0.35004,0.0043 0.432157,0.03201 0.117729,0.03979 0.205638,0.09517 0.295226,0.185974 0.08779,0.08899 0.135008,0.163311 0.171909,0.2706 0.03701,0.107613 0.04701,0.211264 0.04361,0.452045 l -0.003,0.214778 -2.906384,-0.002 c -1.829984,-0.0013 -3.125119,-0.0066 -3.496987,-0.0144 -0.79527,-0.01669 -1.35997,-0.01752 -1.585301,-0.0023 -0.241495,0.01629 -0.754116,0.02838 -0.764156,0.01801 z m 5.240299,-0.04133 c 0.23935,-0.003 0.492298,-0.0085 0.562108,-0.01214 l 0.126928,-0.0066 v -0.07436 c 0,-0.08399 -0.0082,-0.10134 -0.09172,-0.194847 l -0.05146,-0.05762 -0.283268,-0.007 c -0.481281,-0.01196 -1.711961,-0.01258 -1.904834,-9.64e-4 -0.09973,0.006 -0.19881,0.01145 -0.220181,0.01208 l -0.03889,0.0012 v 0.160825 0.160824 l 0.09484,0.0068 c 0.05216,0.0037 0.176891,0.0074 0.277169,0.0081 0.100278,7.02e-4 0.247601,0.0047 0.327384,0.0088 0.140358,0.0073 0.271364,0.0068 1.201927,-0.005 z M 21.187515,42.3478 c 0.420788,-0.0099 0.317596,-0.02039 -0.219635,-0.02225 -0.402397,-0.0014 -0.591224,0.008 -0.408133,0.02025 0.145655,0.0098 0.280666,0.0102 0.627768,0.002 z m 3.660009,-0.03358 c 0.235478,-0.0049 0.430819,-0.01169 0.434092,-0.015 0.0033,-0.0033 -0.06593,-0.08273 -0.153785,-0.176498 -0.313818,-0.33493 -0.361338,-0.391859 -0.361338,-0.432876 0,-0.01967 -0.0072,-0.02457 -0.04404,-0.02997 -0.11547,-0.01691 -0.463497,-0.02578 -1.064638,-0.02716 -0.361874,-8.27e-4 -0.667277,-0.0056 -0.678675,-0.0105 -0.0119,-0.0052 0.269478,-0.0099 0.660542,-0.01105 0.374696,-0.0011 0.696418,-0.0038 0.714939,-0.0059 0.01852,-0.0021 0.497609,-0.0042 1.064639,-0.0046 0.56703,-4.08e-4 1.145198,-0.004 1.284818,-0.008 l 0.253856,-0.0072 -0.108795,-0.0403 c -0.143392,-0.05311 -0.393256,-0.177793 -0.526231,-0.262588 -0.366353,-0.233619 -0.706025,-0.574961 -0.928832,-0.933402 -0.178141,-0.286583 -0.317952,-0.643219 -0.378592,-0.965724 l -0.02132,-0.113407 0.0027,-4.76697 0.0027,-4.766971 0.05699,-0.0069 c 0.03134,-0.0038 0.157235,-0.01232 0.279759,-0.01894 0.734054,-0.03962 1.54055,-0.158457 2.248433,-0.331315 0.226612,-0.05534 0.511557,-0.134549 0.588012,-0.163463 l 0.0544,-0.02057 1.66e-4,-0.05425 c 1.04e-4,-0.02984 0.02078,-0.532687 0.04598,-1.117442 0.0252,-0.584755 0.04389,-1.065145 0.04153,-1.067534 -0.0024,-0.0024 -0.119807,0.0292 -0.260986,0.0702 -0.64606,0.187621 -1.18835,0.305337 -1.862783,0.404359 -0.338498,0.0497 -0.959049,0.110808 -1.125235,0.110808 h -0.07144 l -0.0015,-0.254068 c -8.39e-4,-0.139737 -0.0043,-2.210353 -0.0078,-4.60137 l -0.0062,-4.347303 -0.466264,0.0033 c -0.256446,0.0018 -0.512875,0.0062 -0.569842,0.0098 l -0.103579,0.0066 -0.457666,10.686539 c -0.251715,5.877597 -0.45922,10.712001 -0.46112,10.743121 l -0.0035,0.05658 -0.05673,-0.04904 c -0.0312,-0.02697 -0.06345,-0.04772 -0.07166,-0.0461 -0.0082,0.0016 -0.03419,0.05222 -0.05791,0.112941 -0.147661,0.377909 -0.339037,0.676773 -0.62448,0.975227 -0.06411,0.06703 -0.116567,0.126148 -0.116567,0.131364 0,0.0052 0.128664,0.14379 0.285919,0.307941 0.190995,0.19937 0.301074,0.306351 0.331566,0.322232 0.02511,0.01308 0.04565,0.03028 0.04565,0.03823 0,0.0079 0.03159,0.04911 0.07021,0.09147 0.03862,0.04236 0.0969,0.10729 0.129518,0.144286 l 0.05931,0.06727 v 0.174899 0.1749 l 0.04807,0.0067 c 0.02644,0.0037 0.09754,0.0071 0.158012,0.0076 0.06047,5.03e-4 0.133252,0.0046 0.161746,0.0091 0.07158,0.01127 1.048758,0.0119 1.567899,10e-4 z m 4.042568,-28.695992 c 0.02824,-0.659221 0.0485,-1.203232 0.04503,-1.208911 -0.0228,-0.03729 -0.616836,-0.285376 -1.008392,-0.421122 -0.991251,-0.343651 -2.282064,-0.587884 -3.403734,-0.644015 -0.119675,-0.006 -0.253748,-0.01282 -0.297939,-0.01518 -0.07566,-0.004 -0.0806,-0.003 -0.08472,0.01829 -0.0044,0.02282 -0.08964,2.044455 -0.08909,2.113179 l 3e-4,0.0371 0.168374,0.01335 c 0.724768,0.05747 1.486249,0.179135 2.116324,0.338132 0.788763,0.199045 1.455603,0.452302 2.186265,0.830318 0.170963,0.08845 0.312055,0.155558 0.313537,0.149128 0.0015,-0.0064 0.0258,-0.551054 0.05404,-1.210275 z"
       id="path1712" />
    <path
       style="fill:#9e883a;stroke-width:0.0104191"
       d="m 19.56884,42.738138 c -0.0033,-0.0086 -0.0037,-0.129982 -9.63e-4,-0.269783 0.0038,-0.195692 0.009,-0.268388 0.02249,-0.31591 0.07015,-0.246925 0.258716,-0.44026 0.492751,-0.505227 0.05708,-0.01584 0.09737,-0.01798 0.264217,-0.01399 0.372746,0.0089 1.732477,0.0018 1.856926,-0.0097 0.193073,-0.01785 0.393045,-0.01957 0.408979,-0.0035 0.01978,0.01992 -0.0065,0.03326 -0.06584,0.03345 -0.08752,2.93e-4 -0.08115,-0.02526 -0.08115,0.32545 0,0.235687 0.0031,0.314526 0.01272,0.320517 0.007,0.0044 0.197753,0.01126 0.423907,0.0153 0.249239,0.0045 0.418689,0.01161 0.430234,0.01816 0.01577,0.0089 0.01637,0.01171 0.0035,0.01603 -0.0085,0.0029 -0.197386,0.0075 -0.419639,0.0104 -0.222253,0.0028 -0.414587,0.0084 -0.427409,0.01242 -0.02285,0.0071 -0.02331,0.01045 -0.02331,0.167192 0,0.156745 4.66e-4,0.160095 0.02331,0.167188 0.07387,0.02294 3.071261,0.02924 3.180311,0.0067 l 0.03137,-0.0065 -0.153492,-0.16227 c -0.08442,-0.08925 -0.165852,-0.1679 -0.180955,-0.174782 -0.01917,-0.0087 -0.178849,-0.01506 -0.528886,-0.02095 -0.558193,-0.0094 -0.502811,-0.02083 0.111223,-0.02296 0.260869,-9.11e-4 0.345786,-0.0043 0.353823,-0.01429 0.0078,-0.0096 -0.01249,-0.03936 -0.07644,-0.112187 l -0.08702,-0.09909 v -0.21784 -0.217839 l -0.02331,-7.54e-4 c -0.08963,-0.0029 -0.477333,-0.02263 -0.562108,-0.02861 l -0.103614,-0.0073 0.106576,-0.0131 c 0.07935,-0.0098 0.400152,-0.0131 1.255713,-0.0131 0.64109,0 1.151603,-0.004 1.154713,-0.0091 0.0031,-0.005 -0.03746,-0.0246 -0.09005,-0.04352 -0.709711,-0.255304 -1.311078,-0.80376 -1.633988,-1.490221 -0.09602,-0.204126 -0.153695,-0.372942 -0.215618,-0.631112 l -0.02764,-0.115247 -0.0029,-4.78032 -0.0029,-4.78032 0.02339,-0.0093 c 0.01287,-0.0051 0.125683,-0.01468 0.250708,-0.02127 1.080669,-0.05698 2.201443,-0.259964 3.21082,-0.581516 0.193164,-0.06153 0.431483,-0.148243 0.445429,-0.162061 0.0076,-0.0075 0.1113,-2.295351 0.104447,-2.304278 -0.0037,-0.0048 -0.04861,0.01127 -0.273436,0.09787 -0.995882,0.383635 -2.103545,0.632958 -3.258674,0.733489 -0.322311,0.02805 -0.475489,0.03554 -0.489578,0.02393 -0.01033,-0.0085 -0.01295,-0.941917 -0.01295,-4.603548 V 18.33185 h -0.961024 c -0.528563,0 -1.013439,0.0031 -1.077502,0.0068 l -0.116477,0.0068 -0.192034,0.216463 c -0.105618,0.119056 -0.199804,0.22768 -0.2093,0.241389 -0.01514,0.02185 -0.02519,0.211 -0.08155,1.53422 -0.03536,0.830111 -0.06694,1.562333 -0.07017,1.627159 -0.0037,0.07389 -0.0021,0.117867 0.0043,0.117867 0.009,0 0.326521,-0.323182 0.462276,-0.470553 0.03936,-0.04273 0.05686,-0.05492 0.071,-0.04943 0.01809,0.007 0.01852,0.327997 0.01202,9.017662 l -0.0067,9.010384 -0.02163,0.07202 c -0.0119,0.03961 -0.02829,0.0746 -0.03641,0.07775 -0.01913,0.0074 -0.01924,0.0083 0.01132,-0.09161 l 0.0261,-0.08535 -0.0028,-8.957834 c -0.0025,-8.052004 -0.0044,-8.957835 -0.01872,-8.957835 -0.0088,0 -0.130136,0.122581 -0.269716,0.272402 -0.13958,0.149821 -0.51917,0.557638 -0.843533,0.906261 -1.553152,1.66931 -2.445458,2.61974 -2.456968,2.617011 -0.02586,-0.0061 -1.566992,-1.480465 -1.567825,-1.499872 -4.77e-4,-0.01101 0.03478,-0.05699 0.08031,-0.10477 0.09517,-0.09986 0.83959,-0.907903 2.182598,-2.369141 0.529611,-0.576235 1.08483,-1.17971 1.23382,-1.341056 1.364476,-1.477634 1.636752,-1.774364 1.651103,-1.799396 l 0.0165,-0.02878 1.103494,0.0026 1.103493,0.0026 0.0026,4.597117 c 0.0023,4.062474 0.0044,4.597815 0.01805,4.603111 0.01709,0.0066 0.402652,-0.01994 0.6373,-0.04391 0.88682,-0.09061 1.744327,-0.271209 2.507469,-0.528085 0.417903,-0.140668 0.733503,-0.271093 1.113855,-0.460312 0.543673,-0.270469 0.967239,-0.544387 1.388433,-0.897892 0.173533,-0.145646 0.551926,-0.527477 0.689442,-0.695709 0.619494,-0.757862 0.9926,-1.619605 1.138745,-2.630096 0.07454,-0.515396 0.07641,-1.125467 0.0052,-1.686428 -0.06437,-0.506912 -0.212011,-1.105797 -0.395172,-1.602981 -0.488563,-1.326179 -1.313886,-2.502171 -2.388071,-3.402731 -0.978728,-0.820531 -2.240773,-1.419635 -3.655784,-1.735432 -1.196596,-0.267051 -2.560785,-0.356078 -4.02024,-0.26236 -1.182758,0.07595 -2.391541,0.250122 -3.714576,0.535226 -0.706324,0.152208 -1.774053,0.422551 -3.098072,0.784415 -1.006885,0.275189 -1.01402,0.277016 -1.028246,0.263359 -0.0071,-0.0068 -0.201841,-0.469524 -0.432859,-1.028336 -0.299123,-0.723556 -0.418344,-1.02306 -0.414168,-1.040472 0.02246,-0.09365 0.776962,-0.313937 2.28455,-0.667006 0.2365,-0.05539 0.695771,-0.163871 1.020602,-0.241075 1.466435,-0.348532 2.27438,-0.509296 3.315662,-0.659745 1.203331,-0.173863 2.166565,-0.246465 3.269035,-0.246399 1.199156,1.05e-4 2.161876,0.09037 3.186143,0.298859 2.083138,0.424014 3.804563,1.276167 5.310239,2.628716 0.202165,0.181606 0.617529,0.599182 0.813576,0.817913 1.337056,1.491758 2.157146,3.228489 2.38211,5.044676 0.04508,0.363926 0.05263,0.50518 0.05263,0.984838 0,0.559287 -0.0232,0.859046 -0.104048,1.344404 -0.195478,1.17351 -0.680584,2.394186 -1.320653,3.323172 -1.002532,1.455055 -2.539333,2.574132 -4.508793,3.283238 -1.113363,0.400868 -2.393328,0.665072 -3.635297,0.750381 -0.133922,0.0092 -0.280796,0.02002 -0.326386,0.02405 l -0.08289,0.0073 v 4.78275 4.78275 l 0.03523,0.14144 c 0.104594,0.419902 0.288877,0.799026 0.550001,1.131516 0.102008,0.129885 0.301241,0.33296 0.425008,0.433203 0.240575,0.194847 0.576836,0.384995 0.846686,0.47878 0.09246,0.03213 0.130918,0.0507 0.14271,0.0689 l 0.01614,0.02491 h 0.334126 c 0.376119,0 0.41709,0.0059 0.561492,0.08127 0.110746,0.05778 0.249005,0.202119 0.304232,0.317618 0.06835,0.14295 0.0772,0.197873 0.07833,0.486421 l 9.84e-4,0.251448 -2.538553,0.003 c -1.679085,0.002 -2.733249,-0.0011 -3.113613,-0.0092 -1.032388,-0.02175 -2.057412,-0.02395 -2.40204,-0.0052 -0.40373,0.02202 -0.694461,0.02243 -0.702602,9.74e-4 z m 2.431148,-0.38961 c 0.32124,-0.01498 0.06584,-0.02405 -0.751205,-0.02667 -0.52168,-0.0017 -0.856921,0.0012 -0.885903,0.0076 l -0.04663,0.0103 0.07253,0.0061 c 0.104697,0.0088 1.433187,0.011 1.611204,0.0027 z m 7.575001,-28.368904 c 0.04294,-1.007838 0.04979,-1.227231 0.03865,-1.238321 -0.02036,-0.02027 -0.202947,-0.123091 -0.360646,-0.203088 -0.600594,-0.304667 -1.326171,-0.581103 -2.007001,-0.764641 -1.185245,-0.319519 -2.501137,-0.484181 -3.847214,-0.481413 -0.370693,7.65e-4 -0.636126,0.01025 -0.648935,0.02321 -0.0093,0.0094 -0.102496,2.153179 -0.09398,2.161788 0.0032,0.0032 0.191491,0.0079 0.41841,0.01041 1.328007,0.01453 2.262347,0.119557 3.253089,0.365688 1.063083,0.264102 1.999173,0.667829 2.851213,1.2297 0.110086,0.0726 0.231315,0.152136 0.269398,0.176756 l 0.06924,0.04476 0.0028,-0.05 c 0.0015,-0.0275 0.02628,-0.601181 0.05498,-1.274844 z m -8.694037,27.604088 c 0,-0.0057 0.0615,-0.03278 0.136657,-0.06015 0.323074,-0.117658 0.640103,-0.305035 0.906304,-0.535663 0.02839,-0.0246 0.04556,-0.03328 0.05034,-0.02545 0.01397,0.02286 -0.167392,0.175116 -0.386814,0.324725 l -0.131424,0.08961 -0.003,0.10177 -0.003,0.101769 h -0.0964 c -0.05302,0 -0.181073,0.0031 -0.284565,0.0069 -0.122005,0.0045 -0.188167,0.0032 -0.188167,-0.0035 z"
       id="path1710" />
    <path
       style="fill:#8a7330;stroke-width:0.0104191"
       d="m 19.577347,42.469874 c 0.0034,-0.280685 0.0041,-0.288859 0.03111,-0.363978 0.04066,-0.112961 0.08693,-0.185581 0.174938,-0.274569 0.06004,-0.0607 0.09897,-0.08951 0.165784,-0.122646 0.150811,-0.0748 0.133731,-0.07374 1.019849,-0.06337 0.433109,0.0051 0.830599,0.01182 0.883313,0.015 l 0.09584,0.0058 v 0.311909 0.311908 l -0.04922,0.0072 c -0.02707,0.004 -0.419898,0.01157 -0.872952,0.01689 -0.453054,0.0053 -0.837722,0.01325 -0.854819,0.01763 -0.06474,0.01659 0.110468,0.0228 0.813374,0.02884 0.390367,0.0034 0.766876,0.0088 0.836686,0.01215 l 0.126928,0.006 v 0.160283 0.160284 l -0.126928,0.0061 c -0.06981,0.0033 -0.441657,0.0085 -0.826325,0.01141 -0.384669,0.0029 -0.755349,0.0099 -0.823735,0.01538 -0.06838,0.0055 -0.230752,0.01338 -0.360814,0.01747 l -0.236478,0.0074 z m 5.266857,0.273386 c -0.123297,-0.0039 -0.01209,-0.0067 0.328128,-0.0082 0.283049,-0.0012 0.522009,-0.0051 0.531024,-0.0086 0.02381,-0.0092 0.02016,-0.02838 -0.0109,-0.05729 -0.01501,-0.01397 -0.04532,-0.04822 -0.06735,-0.07611 -0.03876,-0.04906 -0.04006,-0.05335 -0.04006,-0.132043 v -0.08134 l -0.09584,-0.0061 c -0.08026,-0.0051 -0.154976,-0.02024 -0.17244,-0.03497 -0.0022,-0.0019 0.0018,-0.01062 0.009,-0.0194 0.0093,-0.01135 0.03298,-0.016 0.08178,-0.01606 0.03777,0 0.09315,-0.0031 0.123069,-0.0067 l 0.0544,-0.0066 v -0.311305 -0.311304 l -0.08548,-0.0066 c -0.04702,-0.0036 -0.241681,-0.0092 -0.43259,-0.0125 -0.365248,-0.0063 -0.435181,-0.01053 -0.435181,-0.02658 0,-0.006 0.31474,-0.0098 0.816861,-0.0098 0.449273,0 0.97862,-0.0031 1.176326,-0.0069 0.351692,-0.0068 0.401474,-0.01269 0.321948,-0.03817 -0.09712,-0.03111 -0.282352,-0.110491 -0.406129,-0.174041 -0.700948,-0.35988 -1.228242,-0.996406 -1.447123,-1.746902 -0.01991,-0.06826 -0.04805,-0.183659 -0.06255,-0.256442 l -0.02635,-0.132336 0.0026,-4.755185 0.0026,-4.755185 0.202048,-0.01244 c 1.339242,-0.08248 2.486774,-0.307703 3.683492,-0.722962 0.225819,-0.07836 0.661717,-0.254631 0.793459,-0.320864 l 0.107987,-0.05429 0.0032,-0.07334 c 0.06435,-1.473817 0.09919,-2.341609 0.09402,-2.341609 -0.0036,0 -0.138865,0.06798 -0.300567,0.151063 -0.161701,0.08308 -0.362445,0.181971 -0.446096,0.219747 -0.810205,0.365879 -1.647104,0.610742 -2.686941,0.786154 -0.400825,0.06762 -1.037468,0.135713 -1.352169,0.144632 l -0.09843,0.0028 -0.0052,-4.599403 -0.0052,-4.599402 -1.081342,-0.0027 -1.08134,-0.0027 -0.08797,0.09172 c -0.08731,0.09103 -0.08742,0.0911 -0.01438,0.0095 0.04047,-0.04524 0.07359,-0.08885 0.07359,-0.09691 0,-0.0081 0.0047,-0.01469 0.01036,-0.01473 0.0057,0 0.501105,-1.05e-4 1.100903,-1.47e-4 l 1.090542,-1.05e-4 0.0026,4.593949 c 0.0025,4.36375 0.0035,4.59444 0.02074,4.603765 0.01151,0.0062 0.09577,0.0044 0.230531,-0.005 1.878018,-0.130713 3.59022,-0.654988 4.828411,-1.478457 1.100794,-0.732091 1.82875,-1.662372 2.206633,-2.819938 0.13323,-0.408126 0.214977,-0.816504 0.261363,-1.305688 0.01721,-0.181464 0.01729,-0.816489 1.24e-4,-1.005792 -0.102629,-1.132103 -0.437864,-2.182257 -1.01901,-3.192141 -0.457248,-0.794577 -1.092595,-1.55206 -1.796472,-2.141815 -0.745414,-0.624556 -1.648227,-1.122139 -2.641915,-1.456083 -1.086592,-0.365165 -2.15768,-0.54036 -3.548794,-0.580467 -0.213705,-0.0062 -0.423524,-0.01278 -0.466265,-0.0147 -0.04274,-0.0019 0.08548,-0.0016 0.28494,6.39e-4 1.259249,0.01437 2.308674,0.156242 3.322837,0.449224 0.880483,0.254363 1.672629,0.609996 2.382288,1.069528 0.357041,0.231198 0.732797,0.523842 1.082003,0.84268 0.07222,0.06595 0.142484,0.125944 0.15613,0.133331 0.02414,0.01307 0.02481,0.01237 0.02477,-0.02619 0,-0.02179 0.02581,-0.642586 0.05742,-1.379541 l 0.05746,-1.339919 -0.02374,-0.02599 c -0.05032,-0.05508 -0.412008,-0.288481 -0.697236,-0.449942 -1.307962,-0.74041 -2.820865,-1.205868 -4.553854,-1.401035 -0.672712,-0.07576 -1.170767,-0.101444 -1.952322,-0.100676 -0.312988,3.04e-4 -0.567103,-0.0013 -0.564699,-0.0035 0.0024,-0.0022 0.21186,-0.0066 0.465456,-0.0098 2.918594,-0.03612 5.439915,0.633231 7.407141,1.966426 0.623354,0.422447 1.144245,0.856289 1.679967,1.399215 0.617245,0.625546 1.104284,1.251124 1.529942,1.965144 1.425089,2.390512 1.655324,5.063449 0.651112,7.559155 -0.143128,0.355707 -0.322235,0.729368 -0.497174,1.037223 -0.105117,0.184982 -0.347206,0.553854 -0.484759,0.738629 -1.202732,1.61562 -3.124375,2.801207 -5.525147,3.408822 -0.843137,0.213392 -1.814152,0.358478 -2.714697,0.405624 -0.07409,0.0039 -0.140527,0.01175 -0.147651,0.0175 -0.01033,0.0083 -0.01295,0.97068 -0.01295,4.748847 0,4.240801 0.0017,4.7476 0.0161,4.825994 0.0564,0.306749 0.186858,0.651746 0.355076,0.938966 0.154635,0.264026 0.400383,0.552673 0.642067,0.754143 0.258363,0.215376 0.576892,0.394456 0.891804,0.501384 0.05779,0.01962 0.09181,0.03742 0.102216,0.05348 l 0.0156,0.02407 h 0.328716 c 0.293047,0 0.337372,0.0022 0.408467,0.02062 0.203257,0.05257 0.378148,0.194578 0.465767,0.37821 0.06845,0.143464 0.07948,0.213106 0.07948,0.501746 v 0.241413 l -1.644879,-0.0023 c -0.904683,-0.0012 -1.728806,-0.0049 -1.831384,-0.0082 z m -1.530903,-0.0078 c 0.07551,-0.0018 0.199069,-0.0018 0.274578,0 0.07551,0.0018 0.01373,0.0033 -0.137289,0.0033 -0.151018,0 -0.212798,-0.0015 -0.137289,-0.0033 z m -0.124338,-0.397966 c 0.02422,-0.0022 0.06385,-0.0022 0.08807,0 0.02422,0.0022 0.0044,0.004 -0.04404,0.004 -0.04844,0 -0.06826,-0.0018 -0.04404,-0.004 z M 18.50782,24.763577 c -0.842811,-0.797196 -0.861351,-0.815254 -0.852271,-0.830108 0.0072,-0.01177 1.362999,-1.476182 2.106013,-2.274719 0.509331,-0.547392 0.859533,-0.916294 0.887307,-0.934688 0.02155,-0.01427 0.02173,-0.01362 0.01759,0.06178 -0.0023,0.04191 -0.03413,0.780512 -0.07073,1.641337 -0.05331,1.253691 -0.0695,1.569687 -0.08137,1.588008 -0.04917,0.07588 -1.275213,1.40959 -1.295797,1.40959 -0.0064,0 -0.326268,-0.297542 -0.710738,-0.661203 z m 3.906625,-2.758255 c 0,-0.0022 0.0082,-0.01043 0.01813,-0.01834 0.01643,-0.01303 0.0168,-0.01266 0.0039,0.004 -0.01354,0.01745 -0.02204,0.023 -0.02204,0.01438 z m 0.196868,-0.210823 c 0.03095,-0.03169 0.05861,-0.05762 0.06146,-0.05762 0.0028,0 -0.02015,0.02593 -0.0511,0.05762 -0.03095,0.03169 -0.05861,0.05762 -0.06146,0.05762 -0.0028,0 0.02015,-0.02593 0.0511,-0.05762 z m 0.134399,-0.144118 c 0.03688,-0.03886 0.06835,-0.07066 0.06994,-0.07066 0.0016,0 0.0025,0.01768 0.0021,0.03929 -4.45e-4,0.02161 -0.0032,0.0334 -0.006,0.02619 -0.0096,-0.02406 -0.03856,-0.0135 -0.086,0.03137 -0.02586,0.02446 -0.01685,0.01267 0.02003,-0.02619 z m -0.305363,-2.909927 c 0.02226,-0.02305 0.0428,-0.04191 0.04565,-0.04191 0.0028,0 -0.01303,0.01886 -0.03529,0.04191 -0.02226,0.02305 -0.0428,0.04191 -0.04565,0.04191 -0.0028,0 0.01303,-0.01886 0.03529,-0.04191 z m 0.134702,-0.146418 c 0.03419,-0.03731 0.06333,-0.06992 0.06476,-0.07246 0.0014,-0.0025 0.0048,-0.0024 0.0075,3.24e-4 0.0027,0.0027 -0.02645,0.03533 -0.06476,0.07247 l -0.06965,0.06751 0.06217,-0.06784 z m -8.387565,-3.52839 c -0.495966,-1.186804 -0.818499,-1.979855 -0.810653,-1.993249 0.03892,-0.06644 0.511022,-0.222681 1.199182,-0.396867 0.32871,-0.0832 0.707369,-0.173751 2.310601,-0.552529 0.996212,-0.235364 1.643058,-0.367924 2.419397,-0.495817 0.802223,-0.132156 1.734911,-0.245088 1.754841,-0.212481 0.0036,0.0059 -0.01437,0.498044 -0.04001,1.093557 -0.02564,0.595512 -0.04662,1.088138 -0.04663,1.094724 0,0.02139 8.8e-4,0.02123 -0.621701,0.11392 -1.544586,0.229963 -2.734683,0.505278 -5.703131,1.31935 -0.221789,0.06082 -0.408814,0.110589 -0.415612,0.110589 -0.0068,0 -0.02763,-0.03654 -0.04629,-0.0812 z M 21.997397,13.5474 c 0.0071,-0.0029 0.01878,-0.0029 0.0259,0 0.0071,0.0029 0.0013,0.0053 -0.01295,0.0053 -0.01425,0 -0.02008,-0.0024 -0.01295,-0.0053 z m 0.170964,-0.01076 c 0.01,-0.0026 0.02629,-0.0026 0.03627,0 0.01,0.0026 0.0018,0.0048 -0.01813,0.0048 -0.01995,0 -0.02811,-0.0022 -0.01813,-0.0048 z m 0.191872,-0.01085 c 0.01862,-0.0023 0.0466,-0.0023 0.06217,1.04e-4 0.01557,0.0024 3.32e-4,0.0043 -0.03386,0.0042 -0.03419,-1.04e-4 -0.04693,-0.002 -0.02831,-0.0043 z m 0.25367,-0.01059 c 0.02707,-0.0022 0.07137,-0.0022 0.09843,0 0.02707,0.0022 0.0049,0.0039 -0.04922,0.0039 -0.05414,0 -0.07629,-0.0018 -0.04922,-0.0039 z m -0.750557,-2.199626 c 0.0075,-0.003 0.01642,-0.0027 0.01986,8.27e-4 0.0034,0.0035 -0.0027,0.006 -0.0136,0.0055 -0.01207,-5.03e-4 -0.01453,-0.003 -0.0063,-0.0063 z m 0.149594,-0.01054 c 0.01,-0.0026 0.02629,-0.0026 0.03627,0 0.01,0.0026 0.0018,0.0048 -0.01813,0.0048 -0.01995,0 -0.02811,-0.0022 -0.01813,-0.0048 z m 0.202233,-0.01085 c 0.01862,-0.0023 0.0466,-0.0023 0.06217,1.04e-4 0.01557,0.0024 3.31e-4,0.0043 -0.03386,0.0042 -0.03419,-1.04e-4 -0.04693,-0.002 -0.02831,-0.0043 z m 0.217679,-0.01057 c 0.02437,-0.0022 0.06167,-0.0022 0.08289,1.05e-4 0.02122,0.0023 0.0013,0.0041 -0.04431,0.004 -0.04559,0 -0.06295,-0.0019 -0.03858,-0.0041 z"
       id="path1708" />
    <path
       style="fill:#68501f;stroke-width:0.0104191"
       d="m 19.579701,42.744133 c -0.0024,-0.0024 -0.0043,-0.106887 -0.0043,-0.232192 0,-0.280576 0.01168,-0.353251 0.07887,-0.490887 0.08708,-0.178377 0.235402,-0.297545 0.439201,-0.352878 0.07419,-0.02014 0.199835,-0.02146 0.790059,-0.0083 l 0.308253,0.0069 v 0.311371 0.311371 l -0.125964,0.0068 c -0.06928,0.0038 -0.21732,0.0069 -0.328975,0.007 -0.27452,1.78e-4 -0.777082,0.01922 -0.796423,0.03016 -0.01045,0.0059 0.0063,0.01115 0.05057,0.01576 0.08033,0.0084 0.774071,0.02674 1.022058,0.02706 l 0.178735,2.2e-4 v 0.160856 0.160857 l -0.442951,0.0073 c -0.243624,0.004 -0.529211,0.01219 -0.634639,0.01814 -0.282634,0.01594 -0.529617,0.02537 -0.534504,0.02039 z m 6.632213,-6.81e-4 c -0.267843,-0.003 -0.481455,-0.0091 -0.474691,-0.01349 0.0068,-0.0044 0.127992,-0.01261 0.269398,-0.01816 0.141404,-0.0056 0.258266,-0.01017 0.259691,-0.01027 0.0014,-1.05e-4 0.0026,-0.07256 0.0026,-0.161028 v -0.160856 l -0.07739,-0.0066 c -0.04256,-0.0036 -0.243199,-0.0098 -0.445856,-0.01371 -0.278314,-0.0054 -0.372825,-0.01045 -0.386284,-0.02078 -0.01562,-0.012 -0.01271,-0.01375 0.02363,-0.0142 0.197276,-0.0024 0.807114,-0.02231 0.841867,-0.02745 l 0.04404,-0.0065 v -0.31189 -0.311889 l -0.07512,-0.0068 c -0.0996,-0.009 -0.889808,-0.0266 -1.208835,-0.02687 -0.139145,-1.16e-4 -0.249738,-0.0035 -0.245761,-0.0075 0.004,-0.004 0.514148,-0.0099 1.133715,-0.0131 1.114464,-0.0057 1.126464,-0.006 1.124649,-0.02652 -0.0017,-0.01974 -0.001,-0.01965 0.01554,0.0019 0.01705,0.02219 0.0238,0.02269 0.359304,0.02694 0.383582,0.0049 0.401715,0.0076 0.554338,0.08255 0.113116,0.05558 0.244438,0.184636 0.302712,0.297492 0.07329,0.141943 0.08434,0.206431 0.08514,0.497185 l 7.05e-4,0.256687 -0.808193,1.88e-4 c -0.444506,1.05e-4 -1.027337,-0.0023 -1.29518,-0.0052 z m 2.668071,-13.713489 c 0.490024,-0.171598 0.886738,-0.338927 1.331445,-0.561588 0.395966,-0.198256 0.781078,-0.421197 0.878615,-0.50863 l 0.04143,-0.03714 0.05453,-1.282964 c 0.02999,-0.70563 0.05738,-1.333864 0.06085,-1.396076 l 0.0063,-0.113111 -0.02325,0.01258 c -0.01279,0.0069 -0.06767,0.0555 -0.121959,0.107948 -0.502484,0.485474 -1.051608,0.872734 -1.709912,1.205886 -0.230213,0.116505 -0.711134,0.326778 -0.722077,0.315713 -0.0026,-0.0027 0.0061,-0.0083 0.01931,-0.01255 0.01325,-0.0042 0.08931,-0.03579 0.16902,-0.07011 1.357183,-0.58433 2.353633,-1.404828 2.97256,-2.447674 0.349836,-0.589446 0.585664,-1.272555 0.689508,-1.99725 0.04419,-0.30838 0.05525,-0.517447 0.04961,-0.937691 -0.0067,-0.49673 -0.03759,-0.797242 -0.127785,-1.241525 -0.378274,-1.863371 -1.468549,-3.591826 -2.992258,-4.743741 -0.09069,-0.06856 -0.213081,-0.157349 -0.271988,-0.197311 -0.05891,-0.03996 -0.107103,-0.07519 -0.107103,-0.07828 0,-0.0079 0.0098,-0.0017 0.155421,0.09845 0.832402,0.572359 1.554856,1.317924 2.155266,2.224218 0.0702,0.105963 0.140863,0.208149 0.157028,0.227076 0.02881,0.03374 0.02939,0.03391 0.02939,0.0088 0,-0.04995 0.133817,-3.177366 0.140067,-3.273462 l 0.0063,-0.09764 -0.09134,-0.09174 c -0.248806,-0.249892 -0.733937,-0.633524 -1.193819,-0.944049 -0.351666,-0.237454 -0.882336,-0.543312 -1.216249,-0.701 -0.07823,-0.03694 -0.140289,-0.06913 -0.137912,-0.07154 0.0061,-0.0062 0.449029,0.213116 0.622257,0.308163 1.199612,0.658208 2.30054,1.572211 3.167371,2.629586 1.452782,1.772131 2.203093,3.859654 2.132141,5.932064 -0.03354,0.979742 -0.233788,1.921308 -0.60526,2.845976 -0.352184,0.87666 -0.776062,1.579221 -1.355872,2.247317 -0.141721,0.163299 -0.52044,0.544838 -0.685052,0.690154 -0.845211,0.746126 -1.799496,1.318707 -2.953403,1.772072 -0.208557,0.08194 -0.722427,0.262259 -0.744516,0.261253 -0.0065,-2.93e-4 0.09304,-0.03728 0.221263,-0.08218 z M 28.631311,26.78679 c 0.0085,-0.0056 0.0202,-0.01016 0.0259,-0.01016 0.0057,0 0.0034,0.0046 -0.0052,0.01016 -0.0085,0.0056 -0.0202,0.01016 -0.0259,0.01016 -0.0057,0 -0.0034,-0.0046 0.0052,-0.01016 z M 17.948648,24.208092 c -0.210552,-0.192798 -0.281091,-0.261828 -0.277589,-0.271653 0.0057,-0.01607 0.466727,-0.492659 0.471689,-0.487641 0.0069,0.007 -0.03088,0.896851 -0.03806,0.896851 -0.0032,0 -0.07341,-0.0619 -0.156038,-0.137557 z m -3.728644,-9.090061 c -0.008,-0.01519 -0.580429,-1.387941 -0.782686,-1.876901 -0.03193,-0.07719 -0.05805,-0.14939 -0.05805,-0.160454 0,-0.04194 0.249197,-0.136878 0.668313,-0.25462 0.457292,-0.128469 2.324265,-0.580453 3.351927,-0.811485 0.594024,-0.133544 1.223534,-0.254397 1.239744,-0.238006 0.0083,0.0084 -0.07486,2.088059 -0.08744,2.186109 l -0.0074,0.05736 -0.14506,0.03439 c -0.603343,0.143015 -0.883624,0.212373 -1.414337,0.349992 -0.951765,0.246803 -1.985558,0.522232 -2.489082,0.663157 -0.135206,0.03784 -0.250443,0.0688 -0.256081,0.0688 -0.0056,0 -0.01459,-0.0083 -0.01988,-0.01834 z m 14.75573,-0.1322 c -0.0769,-0.05006 -0.12562,-0.08666 -0.08539,-0.06415 0.03812,0.02133 0.176144,0.112348 0.176144,0.116159 0,0.0069 -0.0018,0.0059 -0.09076,-0.05201 z m -0.132624,-0.08578 c -0.01931,-0.01565 -0.01919,-0.01584 0.0032,-0.0049 0.01282,0.0063 0.02331,0.01361 0.02331,0.01629 0,0.008 -0.0054,0.0057 -0.02651,-0.01142 z m -0.05181,-0.03143 c -0.01931,-0.01565 -0.01919,-0.01584 0.0032,-0.0049 0.01282,0.0063 0.02331,0.01362 0.02331,0.01629 0,0.008 -0.0054,0.0057 -0.02651,-0.01142 z m 0.192297,-2.48247 c -0.01425,-0.0082 -0.02124,-0.01497 -0.01554,-0.01497 0.0057,0 0.02202,0.0067 0.03627,0.01497 0.01425,0.0082 0.02124,0.01497 0.01554,0.01497 -0.0057,0 -0.02202,-0.0067 -0.03627,-0.01497 z"
       id="path1706" />
    <path
       style="fill:#553d15;stroke-width:0.0104191"
       d="m 19.588157,42.473477 c 0.0038,-0.24167 0.0065,-0.276957 0.02665,-0.338638 0.04501,-0.137975 0.168224,-0.28737 0.30441,-0.369097 0.07075,-0.04246 0.208392,-0.09114 0.257689,-0.09114 h 0.03055 v 0.308064 0.308062 l -0.111385,0.0062 c -0.245745,0.01376 -0.398491,0.02591 -0.404712,0.0322 -0.02162,0.02186 0.0592,0.03226 0.337362,0.04343 l 0.178735,0.0072 v 0.15926 0.159258 l -0.189096,0.0075 c -0.104003,0.0041 -0.242717,0.01418 -0.308253,0.0224 -0.06554,0.0082 -0.120728,0.01498 -0.122648,0.01503 -0.0019,0 -0.0016,-0.121318 6.94e-4,-0.269699 z m 7.026846,0.260954 c 0.003,-0.0049 0.123306,-0.01193 0.267418,-0.01572 0.144113,-0.0038 0.291164,-0.0099 0.326782,-0.01358 l 0.06476,-0.0067 v -0.159493 -0.159492 l -0.07854,-0.0072 c -0.09597,-0.0088 -0.614784,-0.02581 -0.869534,-0.02853 -0.169968,-0.0018 -0.177778,-0.0027 -0.08807,-0.0096 0.05414,-0.0042 0.194018,-0.0083 0.310843,-0.0091 0.237593,-0.0016 0.61419,-0.01704 0.681361,-0.0279 l 0.04394,-0.0071 v -0.311622 -0.31162 l -0.05066,-0.0068 c -0.05214,-0.007 -0.547269,-0.02658 -0.684142,-0.02707 -0.04227,-1.46e-4 -0.07446,-0.0027 -0.07155,-0.0056 0.0029,-0.0029 0.271232,-0.0053 0.596267,-0.0053 0.471496,0 0.606755,0.0031 0.669042,0.01516 0.258899,0.05009 0.462551,0.23777 0.546489,0.503635 0.0207,0.06555 0.02369,0.101438 0.02817,0.337884 l 0.005,0.264544 H 27.4611 c -0.468322,0 -0.849066,-0.004 -0.846097,-0.0088 z m 5.549559,-15.511563 c 0,-0.0022 0.0082,-0.01043 0.01813,-0.01833 0.01643,-0.01303 0.0168,-0.01266 0.0039,0.004 -0.01354,0.01745 -0.02205,0.023 -0.02205,0.01438 z m 0.155422,-0.137713 c 0.304232,-0.287032 0.649259,-0.652778 0.694217,-0.735901 0.0085,-0.0158 0.04002,-0.05844 0.06994,-0.09474 0.02992,-0.0363 0.0548,-0.06694 0.05528,-0.06808 4.87e-4,-0.0011 0.09563,-2.20146 0.211432,-4.889596 l 0.210548,-4.88752 -0.04404,-0.06814 c -0.02422,-0.03748 -0.05337,-0.08934 -0.06477,-0.115247 -0.0696,-0.158117 -0.48055,-0.717608 -0.807666,-1.099612 -0.022,-0.02569 -0.03444,-0.04326 -0.02764,-0.03904 0.0068,0.0042 0.0654,0.07004 0.130217,0.146248 0.63822,0.750407 1.161351,1.580339 1.533612,2.433032 0.440335,1.008619 0.674702,2.028082 0.71183,3.096354 0.04392,1.263739 -0.208467,2.515636 -0.750809,3.724172 -0.380566,0.84804 -0.868756,1.565158 -1.508568,2.215986 -0.138466,0.14085 -0.322801,0.314217 -0.43949,0.413339 -0.05382,0.04572 -0.04714,0.03766 0.0259,-0.03126 z m 0.03254,-3.986269 c 0,-0.0086 0.004,-0.02515 0.0089,-0.03667 0.0056,-0.01321 0.0089,-0.01514 0.0089,-0.0052 0,0.0086 -0.004,0.02514 -0.0089,0.03667 -0.0056,0.01321 -0.0089,0.01515 -0.0089,0.0052 z m 0.03045,-0.110881 c 4.97e-4,-0.01221 0.003,-0.01469 0.0063,-0.0063 0.003,0.0076 0.0026,0.0166 -8.18e-4,0.02008 -0.0034,0.0035 -0.0059,-0.0027 -0.0054,-0.01375 z m 0.02072,-0.07334 c 4.97e-4,-0.01221 0.003,-0.01469 0.0063,-0.0063 0.003,0.0076 0.0026,0.0166 -8.18e-4,0.02008 -0.0034,0.0035 -0.0059,-0.0027 -0.0054,-0.01375 z m 0.01349,-0.04889 c 0.04605,-0.170671 0.113636,-0.550502 0.140912,-0.791893 0.04439,-0.392892 0.04796,-0.667611 0.01608,-1.238026 l -0.0044,-0.07858 0.0088,0.0681 c 0.0049,0.03746 0.01446,0.178895 0.02132,0.31431 0.02681,0.528997 -0.02714,1.102619 -0.155467,1.652747 -0.01243,0.0533 -0.02509,0.09691 -0.02813,0.09691 -0.003,0 -0.0027,-0.01061 8.4e-4,-0.02357 z m 0.14394,-2.155643 c 0,-0.02593 0.002,-0.03654 0.0045,-0.02357 0.0025,0.01297 0.0025,0.03418 0,0.04715 -0.0025,0.01297 -0.0045,0.0024 -0.0045,-0.02357 z m -0.01772,-0.126379 c -0.004,-0.04109 -0.0051,-0.07689 -0.0025,-0.07955 0.0026,-0.0027 0.0081,0.02871 0.0122,0.06973 0.0041,0.04102 0.0052,0.07682 0.0025,0.07955 -0.0027,0.0027 -0.0082,-0.02864 -0.0122,-0.06973 z m -0.01379,-0.125069 c 0,-0.02017 0.0021,-0.02842 0.0047,-0.01834 0.0026,0.01008 0.0026,0.02659 0,0.03667 -0.0026,0.01008 -0.0047,0.0018 -0.0047,-0.01834 z m -0.01708,-0.09517 c -0.0039,-0.02968 -0.005,-0.05607 -0.0024,-0.05865 0.0025,-0.0026 0.0079,0.01949 0.01194,0.04904 0.004,0.02955 0.0051,0.05594 0.0024,0.05864 -0.0027,0.0027 -0.008,-0.01936 -0.01194,-0.04904 z m -0.01439,-0.09866 c 2.07e-4,-0.01729 0.0025,-0.02309 0.0052,-0.0129 0.0026,0.01019 0.0025,0.02434 -3.83e-4,0.03143 -0.0028,0.0071 -0.005,-0.0012 -0.0048,-0.01853 z m -0.01709,-0.08429 c -0.004,-0.02673 -0.0051,-0.05073 -0.0025,-0.05335 0.0026,-0.0026 0.008,0.0171 0.01192,0.04383 0.004,0.02673 0.0051,0.05073 0.0025,0.05335 -0.0026,0.0026 -0.008,-0.0171 -0.01192,-0.04383 z m -0.01438,-0.08858 c 0,-0.01441 0.0024,-0.0203 0.0052,-0.0131 0.0029,0.0072 0.0029,0.01899 0,0.02619 -0.0029,0.0072 -0.0052,0.0013 -0.0052,-0.0131 z m -0.01036,-0.05239 c 0,-0.01441 0.0024,-0.0203 0.0052,-0.0131 0.0029,0.0072 0.0029,0.01899 0,0.02619 -0.0029,0.0072 -0.0052,0.0013 -0.0052,-0.0131 z m -0.01118,-0.04802 c 4.97e-4,-0.01221 0.003,-0.01469 0.0063,-0.0063 0.003,0.0076 0.0026,0.0166 -8.18e-4,0.02008 -0.0034,0.0035 -0.0059,-0.0027 -0.0054,-0.01375 z m -0.0095,-0.04627 c 0,-0.01441 0.0024,-0.0203 0.0052,-0.0131 0.0029,0.0072 0.0029,0.01899 0,0.02619 -0.0029,0.0072 -0.0052,0.0013 -0.0052,-0.0131 z m -0.01118,-0.04802 c 4.97e-4,-0.01221 0.003,-0.01469 0.0063,-0.0063 0.003,0.0076 0.0026,0.0166 -8.18e-4,0.02008 -0.0034,0.0035 -0.0059,-0.0027 -0.0054,-0.01375 z m -0.01036,-0.04191 c 4.98e-4,-0.01221 0.003,-0.01469 0.0063,-0.0063 0.003,0.0076 0.0026,0.0166 -8.19e-4,0.02008 -0.0034,0.0035 -0.0059,-0.0027 -0.0054,-0.01375 z m -18.183746,-4.76237 c -0.0051,-0.01361 -0.196706,-0.466836 -0.425724,-1.007167 -0.229018,-0.540333 -0.414849,-0.990582 -0.412956,-1.000554 0.005,-0.02638 0.08936,-0.06898 0.231134,-0.116713 0.154276,-0.05195 0.70818,-0.201703 1.201927,-0.324962 0.545001,-0.136054 0.657341,-0.162041 0.665374,-0.153918 0.0066,0.0067 -0.07267,1.99221 -0.08852,2.216042 l -0.007,0.09846 -0.04663,0.01328 c -0.02564,0.0073 -0.277427,0.07564 -0.559518,0.151859 -0.28209,0.07622 -0.520968,0.140793 -0.530839,0.143498 -0.01194,0.0033 -0.02107,-0.0034 -0.02728,-0.01983 z"
       id="path1704" />
  </g>
</svg>
